<?xml version="1.0" encoding="UTF-8"?>
<!DOCTYPE svg PUBLIC "-//W3C//DTD SVG 1.1//EN" "http://www.w3.org/Graphics/SVG/1.1/DTD/svg11.dtd">
<svg xmlns="http://www.w3.org/2000/svg" version="1.1" width="191px" height="191px" style="shape-rendering:geometricPrecision; text-rendering:geometricPrecision; image-rendering:optimizeQuality; fill-rule:evenodd; clip-rule:evenodd" xmlns:xlink="http://www.w3.org/1999/xlink">
<g><path style="opacity:0.604" fill="#d5d0d0" d="M 81.5,-0.5 C 90.5,-0.5 99.5,-0.5 108.5,-0.5C 153.5,9.16667 180.833,36.5 190.5,81.5C 190.5,90.5 190.5,99.5 190.5,108.5C 180.833,153.5 153.5,180.833 108.5,190.5C 99.5,190.5 90.5,190.5 81.5,190.5C 36.5,180.833 9.16667,153.5 -0.5,108.5C -0.5,99.5 -0.5,90.5 -0.5,81.5C 9.16667,36.5 36.5,9.16667 81.5,-0.5 Z M 91.5,0.5 C 131.64,1.30976 161.14,19.3098 180,54.5C 197.444,98.2188 188.944,136.052 154.5,168C 114.829,196.666 75.1623,196.666 35.5,168C 3.2858,138.647 -6.2142,103.147 7,61.5C 23.3006,24.6104 51.4673,4.27702 91.5,0.5 Z"/></g>
<g><path style="opacity:0.007" fill="#000000" d="M 135.5,160.5 C 135.833,160.5 136.167,160.5 136.5,160.5C 136.833,160.5 137.167,160.5 137.5,160.5C 137.027,161.906 136.027,162.573 134.5,162.5C 134.5,162.167 134.5,161.833 134.5,161.5C 135.167,161.5 135.5,161.167 135.5,160.5 Z"/></g>
<g><path style="opacity:0.006" fill="#000000" d="M 138.5,158.5 C 138.833,158.5 139.167,158.5 139.5,158.5C 139.833,158.5 140.167,158.5 140.5,158.5C 140.027,159.906 139.027,160.573 137.5,160.5C 137.5,160.167 137.5,159.833 137.5,159.5C 138.167,159.5 138.5,159.167 138.5,158.5 Z"/></g>
<g><path style="opacity:0.007" fill="#000000" d="M 49.5,158.5 C 49.8333,158.5 50.1667,158.5 50.5,158.5C 50.8333,158.5 51.1667,158.5 51.5,158.5C 51.5,159.167 51.8333,159.5 52.5,159.5C 52.5,159.833 52.5,160.167 52.5,160.5C 50.9731,160.573 49.9731,159.906 49.5,158.5 Z"/></g>
<g><path style="opacity:0.005" fill="#000000" d="M 142.5,155.5 C 142.833,155.5 143.167,155.5 143.5,155.5C 143.833,155.5 144.167,155.5 144.5,155.5C 144.027,156.906 143.027,157.573 141.5,157.5C 141.5,157.167 141.5,156.833 141.5,156.5C 142.167,156.5 142.5,156.167 142.5,155.5 Z"/></g>
<g><path style="opacity:0.006" fill="#191919" d="M 159.5,135.5 C 159.5,134.833 159.833,134.5 160.5,134.5C 160.833,134.5 161.167,134.5 161.5,134.5C 161.672,135.492 161.338,136.158 160.5,136.5C 160.5,135.833 160.167,135.5 159.5,135.5 Z"/></g>
<g><path style="opacity:0.004" fill="#191919" d="M 24.5,123.5 C 24.8333,124.167 25.1667,124.833 25.5,125.5C 23.5759,125.289 23.2426,124.623 24.5,123.5 Z"/></g>
<g><path style="opacity:0.286" fill="#747474" d="M 168.5,82.5 C 169.239,82.369 169.906,82.5357 170.5,83C 169.748,83.6708 169.414,84.5041 169.5,85.5C 168.596,84.791 168.263,83.791 168.5,82.5 Z"/></g>
<g><path style="opacity:0.008" fill="#000000" d="M 36.5,47.5 C 36.5,48.1667 36.5,48.8333 36.5,49.5C 35.8333,49.5 35.5,49.8333 35.5,50.5C 35.1667,50.5 34.8333,50.5 34.5,50.5C 34.427,48.9731 35.0937,47.9731 36.5,47.5 Z"/></g>
<g><path style="opacity:0.005" fill="#000000" d="M 152.5,46.5 C 153.906,46.9731 154.573,47.9731 154.5,49.5C 154.167,49.5 153.833,49.5 153.5,49.5C 153.5,48.8333 153.167,48.5 152.5,48.5C 152.5,48.1667 152.5,47.8333 152.5,47.5C 152.5,47.1667 152.5,46.8333 152.5,46.5 Z"/></g>
<g><path style="opacity:0.007" fill="#000000" d="M 49.5,35.5 C 49.5,35.8333 49.5,36.1667 49.5,36.5C 48.8333,36.5 48.5,36.8333 48.5,37.5C 47.8333,37.5 47.5,37.8333 47.5,38.5C 47.1667,38.5 46.8333,38.5 46.5,38.5C 46.1667,38.5 45.8333,38.5 45.5,38.5C 46.2623,36.7376 47.5956,35.7376 49.5,35.5 Z"/></g>
<g><path style="opacity:0.006" fill="#000000" d="M 137.5,34.5 C 137.5,34.1667 137.5,33.8333 137.5,33.5C 139.027,33.427 140.027,34.0937 140.5,35.5C 140.167,35.5 139.833,35.5 139.5,35.5C 139.167,35.5 138.833,35.5 138.5,35.5C 138.5,34.8333 138.167,34.5 137.5,34.5 Z"/></g>
<g><path style="opacity:0.997" fill="#f9faf9" d="M 110.5,22.5 C 113.619,23.8699 116.952,24.8699 120.5,25.5C 121.833,25.8333 123.167,26.1667 124.5,26.5C 125.5,27.1667 126.5,27.8333 127.5,28.5C 127.842,29.3382 128.508,29.6716 129.5,29.5C 129.842,30.3382 130.508,30.6716 131.5,30.5C 131.833,31.8333 132.167,31.8333 132.5,30.5C 133.492,30.3284 134.158,30.6618 134.5,31.5C 133.167,31.8333 133.167,32.1667 134.5,32.5C 134.842,33.3382 135.508,33.6716 136.5,33.5C 136.5,34.1667 136.833,34.5 137.5,34.5C 138.167,34.5 138.5,34.8333 138.5,35.5C 138.833,35.5 139.167,35.5 139.5,35.5C 140.242,37.3497 141.242,38.0164 142.5,37.5C 143.492,37.3284 144.158,37.6618 144.5,38.5C 146.121,41.8279 148.787,44.8279 152.5,47.5C 152.5,47.8333 152.5,48.1667 152.5,48.5C 153.167,48.5 153.5,48.8333 153.5,49.5C 154.242,51.3497 155.242,52.0164 156.5,51.5C 157.338,51.8417 157.672,52.5084 157.5,53.5C 156.453,54.0778 156.62,54.7445 158,55.5C 158.399,55.2716 158.565,54.9382 158.5,54.5C 159.338,54.8417 159.672,55.5084 159.5,56.5C 158.167,56.8333 158.167,57.1667 159.5,57.5C 159.328,58.4916 159.662,59.1583 160.5,59.5C 160.833,60.8333 161.167,60.8333 161.5,59.5C 162.338,59.8417 162.672,60.5084 162.5,61.5C 163.338,61.8417 163.672,62.5084 163.5,63.5C 164.338,63.8417 164.672,64.5084 164.5,65.5C 166.233,68.0295 167.233,71.0295 167.5,74.5C 167.833,77.1667 168.167,79.8333 168.5,82.5C 168.263,83.791 168.596,84.791 169.5,85.5C 171.003,96.9535 170.336,108.287 167.5,119.5C 168.042,121.383 167.375,123.049 165.5,124.5C 165.167,125.833 164.833,127.167 164.5,128.5C 164.672,129.492 164.338,130.158 163.5,130.5C 163.672,131.492 163.338,132.158 162.5,132.5C 162.672,133.492 162.338,134.158 161.5,134.5C 161.167,133.167 160.833,133.167 160.5,134.5C 159.833,134.5 159.5,134.833 159.5,135.5C 158.494,136.396 158.494,137.062 159.5,137.5C 159.672,138.492 159.338,139.158 158.5,139.5C 157.922,138.453 157.256,138.62 156.5,140C 156.728,140.399 157.062,140.565 157.5,140.5C 157.672,141.492 157.338,142.158 156.5,142.5C 156.565,142.062 156.399,141.728 156,141.5C 155.167,142.333 154.333,143.167 153.5,144C 153.728,144.399 154.062,144.565 154.5,144.5C 154.672,145.492 154.338,146.158 153.5,146.5C 149.838,148.46 146.504,151.46 143.5,155.5C 143.167,155.5 142.833,155.5 142.5,155.5C 141.833,155.5 141.5,155.833 141.5,156.5C 140.5,156.833 139.833,157.5 139.5,158.5C 139.167,158.5 138.833,158.5 138.5,158.5C 137.833,158.5 137.5,158.833 137.5,159.5C 136.833,159.5 136.5,159.833 136.5,160.5C 136.167,160.5 135.833,160.5 135.5,160.5C 134.833,160.5 134.5,160.833 134.5,161.5C 133.167,161.833 133.167,162.167 134.5,162.5C 134.158,163.338 133.492,163.672 132.5,163.5C 132.158,164.338 131.492,164.672 130.5,164.5C 130.167,163.167 129.833,163.167 129.5,164.5C 128.5,165.167 127.5,165.833 126.5,166.5C 126.158,167.338 125.492,167.672 124.5,167.5C 123.687,168.653 122.687,168.653 121.5,167.5C 120.803,169.385 119.803,169.718 118.5,168.5C 117.803,170.385 116.803,170.718 115.5,169.5C 114.295,171.138 112.962,171.471 111.5,170.5C 98.118,173.233 85.118,172.9 72.5,169.5C 71.6868,168.347 70.6868,168.347 69.5,169.5C 69.1667,168.833 68.8333,168.167 68.5,167.5C 67.8333,167.833 67.1667,168.167 66.5,168.5C 65.3044,168.154 65.3044,167.654 66.5,167C 65.9056,166.536 65.2389,166.369 64.5,166.5C 64.1583,165.662 63.4916,165.328 62.5,165.5C 62.1583,164.662 61.4916,164.328 60.5,164.5C 60.1583,163.662 59.4916,163.328 58.5,163.5C 58.1667,162.167 57.8333,162.167 57.5,163.5C 56.5084,163.672 55.8417,163.338 55.5,162.5C 56.8333,162.167 56.8333,161.833 55.5,161.5C 55.1583,160.662 54.4916,160.328 53.5,160.5C 53.5,159.833 53.1667,159.5 52.5,159.5C 51.8333,159.5 51.5,159.167 51.5,158.5C 51.1667,158.5 50.8333,158.5 50.5,158.5C 49.7582,156.65 48.7582,155.984 47.5,156.5C 46.5084,156.672 45.8417,156.338 45.5,155.5C 45.9382,155.565 46.2716,155.399 46.5,155C 43.3333,151.833 40.1667,148.667 37,145.5C 36.6012,145.728 36.4346,146.062 36.5,146.5C 35.6618,146.158 35.3284,145.492 35.5,144.5C 35.9382,144.565 36.2716,144.399 36.5,144C 35.6667,143.167 34.8333,142.333 34,141.5C 33.6012,141.728 33.4346,142.062 33.5,142.5C 32.6618,142.158 32.3284,141.492 32.5,140.5C 33.547,139.922 33.3803,139.256 32,138.5C 31.6012,138.728 31.4346,139.062 31.5,139.5C 30.6618,139.158 30.3284,138.492 30.5,137.5C 31.547,136.922 31.3803,136.256 30,135.5C 29.6012,135.728 29.4346,136.062 29.5,136.5C 28.6618,136.158 28.3284,135.492 28.5,134.5C 27.6618,134.158 27.3284,133.492 27.5,132.5C 26.6618,132.158 26.3284,131.492 26.5,130.5C 25.6618,130.158 25.3284,129.492 25.5,128.5C 24.375,127.652 24.375,126.652 25.5,125.5C 25.1667,124.833 24.8333,124.167 24.5,123.5C 24.0825,122.778 23.4158,122.278 22.5,122C 23.7736,121.023 23.7736,120.189 22.5,119.5C 19.016,105.908 18.6827,92.2416 21.5,78.5C 22.4345,77.4324 22.7678,76.099 22.5,74.5C 22.767,71.0295 23.767,68.0295 25.5,65.5C 25.3284,64.5084 25.6618,63.8417 26.5,63.5C 26.3284,62.5084 26.6618,61.8417 27.5,61.5C 27.3284,60.5084 27.6618,59.8417 28.5,59.5C 28.81,60.7383 29.31,60.7383 30,59.5C 30.3742,58.5838 30.8742,57.7504 31.5,57C 31.2716,56.6012 30.9382,56.4346 30.5,56.5C 30.3284,55.5084 30.6618,54.8417 31.5,54.5C 32.0778,55.547 32.7445,55.3803 33.5,54C 33.2716,53.6012 32.9382,53.4346 32.5,53.5C 32.3284,52.5084 32.6618,51.8417 33.5,51.5C 34.3274,52.4387 34.9941,52.1054 35.5,50.5C 36.1667,50.5 36.5,50.1667 36.5,49.5C 39.8049,45.8592 43.1383,42.1925 46.5,38.5C 46.8333,38.5 47.1667,38.5 47.5,38.5C 48.1667,38.5 48.5,38.1667 48.5,37.5C 49.1667,37.5 49.5,37.1667 49.5,36.5C 51.6125,35.5604 53.6125,34.3937 55.5,33C 56.7383,32.31 56.7383,31.81 55.5,31.5C 55.8417,30.6618 56.5084,30.3284 57.5,30.5C 57.4346,30.9382 57.6012,31.2716 58,31.5C 59.6516,30.6006 61.1516,29.6006 62.5,28.5C 63.5,27.8333 64.5,27.1667 65.5,26.5C 66.8333,26.1667 68.1667,25.8333 69.5,25.5C 72.1977,25.5497 74.3644,24.5497 76,22.5C 77.2917,23.7911 78.4583,23.7911 79.5,22.5C 89.8333,21.1667 100.167,21.1667 110.5,22.5 Z"/></g>
<g><path style="opacity:1" fill="#045823" d="M 59.5,94.5 C 64.5805,94.2497 69.5805,94.7497 74.5,96C 79.1667,98.3333 83.8333,100.667 88.5,103C 97.1667,103 105.833,103 114.5,103C 117.167,106 117.167,109 114.5,112C 106.97,113.977 99.3031,114.81 91.5,114.5C 91.5,115.833 91.5,117.167 91.5,118.5C 98.9869,118.942 106.32,118.108 113.5,116C 121.369,112.123 128.702,107.456 135.5,102C 140.986,100.175 143.486,102.008 143,107.5C 132.862,119.976 120.362,129.143 105.5,135C 78.8272,140.247 59.6606,130.747 48,106.5C 47.3333,104.5 47.3333,102.5 48,100.5C 51.5735,97.8224 55.4068,95.8224 59.5,94.5 Z"/></g>
<g><path style="opacity:1" fill="#5fbc1b" d="M 120.5,66.5 C 123.5,66.5 126.5,66.5 129.5,66.5C 127.109,75.7112 121.109,80.7112 111.5,81.5C 96.8605,78.0766 96.8605,74.9099 111.5,72C 114.898,70.6429 117.898,68.8096 120.5,66.5 Z"/></g>
<g><path style="opacity:1" fill="#5ebc1c" d="M 65.5,67.5 C 69.1046,68.9629 72.7713,70.4629 76.5,72C 88.3212,73.942 88.3212,76.6086 76.5,80C 69.0332,81.6663 62.3666,80.1663 56.5,75.5C 59.3436,72.591 62.3436,69.9243 65.5,67.5 Z"/></g>
<g><path style="opacity:1" fill="#cee9bd" d="M 96.5,59.5 C 96.1583,60.3382 95.4916,60.6716 94.5,60.5C 93.8333,57.8333 93.1667,55.1667 92.5,52.5C 92.6716,51.5084 92.3382,50.8417 91.5,50.5C 91.5387,47.6786 92.2054,45.0119 93.5,42.5C 94.4338,48.3174 95.4338,53.984 96.5,59.5 Z"/></g>
<g><path style="opacity:1" fill="#60bc20" d="M 92.5,52.5 C 93.1667,55.1667 93.8333,57.8333 94.5,60.5C 94.1758,64.5546 94.5091,68.5546 95.5,72.5C 96.919,70.6641 98.0857,68.6641 99,66.5C 100.713,50.5679 109.546,42.9012 125.5,43.5C 126.238,59.9176 118.571,68.4176 102.5,69C 105.416,64.0801 109.082,59.7467 113.5,56C 108.517,58.637 104.35,62.4703 101,67.5C 94.7322,77.0452 92.8989,87.3785 95.5,98.5C 93.8333,98.5 92.1667,98.5 90.5,98.5C 93.8442,80.8591 88.5109,66.5258 74.5,55.5C 77.0887,60.0129 80.4221,64.5129 84.5,69C 72.1603,69.5631 64.6603,63.7297 62,51.5C 61.5026,48.854 61.3359,46.1873 61.5,43.5C 78.0757,42.9076 86.909,50.9076 88,67.5C 89,68.8333 90,70.1667 91,71.5C 92.2573,65.2312 92.7573,58.8979 92.5,52.5 Z"/></g>
<g><path style="opacity:1" fill="#60bd1f" d="M 96.5,59.5 C 95.4338,53.984 94.4338,48.3174 93.5,42.5C 92.2054,45.0119 91.5387,47.6786 91.5,50.5C 91.665,53.8499 91.4983,57.1832 91,60.5C 81.5742,47.943 82.5742,36.2763 94,25.5C 105.421,36.1664 106.254,47.4997 96.5,59.5 Z"/></g>
</svg>
